# xmcd
#
# Track frame offsets:
#	150
#	15193
#	30902
#	48553
#	61076
#	80240
#	102651
#	117584
#	131867
#	148884
#	161165
#	182018
#
# Disc length: 2620 seconds
#
# Revision: 1
# Processed by: cddbd v1.5.2PL0 Copyright (c) Steve Scherf et al.
# Submitted via: audiograbber 1.83.01
#
DISCID=a90a3a0c
DTITLE=Dapper Dan - Just a step away
DYEAR=2018
DGENRE=Bluegrass
TTITLE0=Abraham
TTITLE1=One of these women
TTITLE2=Just a step away
TTITLE3=Monsterland Rag
TTITLE4=Snowflake
TTITLE5=Dixie
TTITLE6=I'll fly away
TTITLE7=It ain't me baby
TTITLE8=My rifle my pony and me
TTITLE9=Lonesome pine
TTITLE10=Barn dance medley
TTITLE11=Auld lang syne
EXTD=Bluegrass
EXTT0=
EXTT1=
EXTT2=
EXTT3=
EXTT4=
EXTT5=
EXTT6=
EXTT7=
EXTT8=
EXTT9=
EXTT10=
EXTT11=
PLAYORDER=
